<?xml version="1.0" encoding="iso-8859-1"?>
<!-- Uploaded to: SVG Repo, www.svgrepo.com, Generator: SVG Repo Mixer Tools -->
<svg fill="#000000" height="800px" width="800px" version="1.1" id="Layer_1" xmlns="http://www.w3.org/2000/svg" xmlns:xlink="http://www.w3.org/1999/xlink" 
	 viewBox="0 0 512 512" xml:space="preserve">
<g>
	<g>
		<path d="M396.8,153.6c4.318,0,8.576,0.265,12.8,0.648V128c0-8.559-4.275-16.555-11.401-21.299l-76.8-51.2
			c-4.207-2.807-9.148-4.301-14.199-4.301H102.4c-5.052,0-9.993,1.493-14.199,4.301l-76.8,51.2C4.275,111.445,0,119.441,0,128v307.2
			c0,14.14,11.46,25.6,25.6,25.6H384c14.14,0,25.6-11.46,25.6-25.6h-384V140.8h128v166.4H256V140.8h128v13.449
			C388.224,153.865,392.482,153.6,396.8,153.6z M153.6,115.2H44.8l57.6-38.4h51.2V115.2z M230.4,281.6h-51.2V140.8h51.2V281.6z
			 M230.4,115.2h-51.2V76.8h51.2V115.2z M256,115.2V76.8h51.2l57.6,38.4H256z"/>
	</g>
</g>
<g>
	<g>
		<path d="M396.8,179.2c-36.284,0-68.531,16.819-89.6,43.059V200.96c0-7.074-5.726-12.8-12.8-12.8c-7.074,0-12.8,5.726-12.8,12.8
			v51.2c0,7.074,5.726,12.8,12.8,12.8h51.2c7.074,0,12.8-5.726,12.8-12.8c0-7.074-5.726-12.8-12.8-12.8h-18.782
			c16.341-20.898,41.446-34.56,69.982-34.56c49.408,0,89.6,40.192,89.6,89.6S446.208,384,396.8,384
			c-24.704,0-46.72-10.436-62.925-26.675l-18.244,18.244c20.77,20.924,49.331,34.031,81.169,34.031
			c63.625,0,115.2-51.576,115.2-115.2S460.425,179.2,396.8,179.2z"/>
	</g>
</g>
</svg>