<?xml version="1.0" encoding="UTF-8"?>
<!DOCTYPE svg PUBLIC "-//W3C//DTD SVG 1.1//EN" "http://www.w3.org/Graphics/SVG/1.1/DTD/svg11.dtd">
<svg xmlns="http://www.w3.org/2000/svg" version="1.1" width="500px" height="107px" style="shape-rendering:geometricPrecision; text-rendering:geometricPrecision; image-rendering:optimizeQuality; fill-rule:evenodd; clip-rule:evenodd" xmlns:xlink="http://www.w3.org/1999/xlink">
<g><path style="opacity:0.957" fill="#fdfdfd" d="M 175.5,13.5 C 200.221,15.7222 210.388,29.0555 206,53.5C 200.993,66.4311 191.493,73.0978 177.5,73.5C 152.814,69.7923 143.314,55.7923 149,31.5C 154.571,20.6357 163.404,14.6357 175.5,13.5 Z M 176.5,26.5 C 192.286,29.3967 197.119,38.3967 191,53.5C 181.425,62.7428 172.091,62.4095 163,52.5C 158.295,38.9074 162.795,30.2407 176.5,26.5 Z"/></g>
<g><path style="opacity:0.067" fill="#dd675e" d="M 477.5,14.5 C 436.153,13.839 395.153,14.5056 354.5,16.5C 354.167,16.5 353.833,16.5 353.5,16.5C 353.5,15.5 353.5,14.5 353.5,13.5C 395.003,13.168 436.337,13.5014 477.5,14.5 Z"/></g>
<g><path style="opacity:0.966" fill="#fefefe" d="M 3.5,15.5 C 14.5637,15.0939 25.5637,15.5939 36.5,17C 46.8377,22.9966 50.3377,31.8299 47,43.5C 43.7929,50.7087 38.2929,54.8754 30.5,56C 25.8452,56.4992 21.1785,56.6658 16.5,56.5C 16.5,61.5 16.5,66.5 16.5,71.5C 12.1667,71.5 7.83333,71.5 3.5,71.5C 3.5,52.8333 3.5,34.1667 3.5,15.5 Z M 16.5,27.5 C 20.8461,27.3343 25.1794,27.501 29.5,28C 35.3085,32.0271 35.9752,36.8604 31.5,42.5C 26.6989,44.3189 21.6989,44.9856 16.5,44.5C 16.5,38.8333 16.5,33.1667 16.5,27.5 Z"/></g>
<g><path style="opacity:0.967" fill="#fefefe" d="M 73.5,15.5 C 77.8333,15.5 82.1667,15.5 86.5,15.5C 86.5,22.5 86.5,29.5 86.5,36.5C 93.5,36.5 100.5,36.5 107.5,36.5C 107.5,29.5 107.5,22.5 107.5,15.5C 112.167,15.5 116.833,15.5 121.5,15.5C 121.5,34.1667 121.5,52.8333 121.5,71.5C 116.833,71.5 112.167,71.5 107.5,71.5C 107.5,64.1667 107.5,56.8333 107.5,49.5C 100.5,49.5 93.5,49.5 86.5,49.5C 86.5,56.8333 86.5,64.1667 86.5,71.5C 81.8215,71.6658 77.1548,71.4992 72.5,71C 73.4733,52.3677 73.8067,33.8677 73.5,15.5 Z"/></g>
<g><path style="opacity:0.97" fill="#fdfdfd" d="M 233.5,15.5 C 237.514,15.3345 241.514,15.5012 245.5,16C 253,26.1667 260.5,36.3333 268,46.5C 269.226,36.2034 269.726,25.87 269.5,15.5C 273.833,15.5 278.167,15.5 282.5,15.5C 282.5,34.1667 282.5,52.8333 282.5,71.5C 278.486,71.6655 274.486,71.4988 270.5,71C 262.632,60.7641 255.132,50.2641 248,39.5C 247.5,50.1615 247.333,60.8281 247.5,71.5C 242.833,71.5 238.167,71.5 233.5,71.5C 233.5,52.8333 233.5,34.1667 233.5,15.5 Z"/></g>
<g><path style="opacity:0.982" fill="#fdfdfd" d="M 311.5,15.5 C 324.167,15.5 336.833,15.5 349.5,15.5C 349.5,19.1667 349.5,22.8333 349.5,26.5C 341.5,26.5 333.5,26.5 325.5,26.5C 325.5,30.1667 325.5,33.8333 325.5,37.5C 332.833,37.5 340.167,37.5 347.5,37.5C 347.5,41.1667 347.5,44.8333 347.5,48.5C 340.167,48.5 332.833,48.5 325.5,48.5C 325.5,52.5 325.5,56.5 325.5,60.5C 333.833,60.5 342.167,60.5 350.5,60.5C 350.5,64.1667 350.5,67.8333 350.5,71.5C 337.5,71.5 324.5,71.5 311.5,71.5C 311.5,52.8333 311.5,34.1667 311.5,15.5 Z"/></g>
<g><path style="opacity:1" fill="#fd5951" d="M 477.5,14.5 C 477.253,17.9387 477.586,21.272 478.5,24.5C 437.386,26.4856 396.053,27.1522 354.5,26.5C 354.5,23.1667 354.5,19.8333 354.5,16.5C 395.153,14.5056 436.153,13.839 477.5,14.5 Z"/></g>
<g><path style="opacity:1" fill="#e76a61" d="M 353.5,16.5 C 353.833,16.5 354.167,16.5 354.5,16.5C 354.5,19.8333 354.5,23.1667 354.5,26.5C 396.053,27.1522 437.386,26.4856 478.5,24.5C 478.67,25.8221 478.337,26.9887 477.5,28C 436.168,28.5 394.835,28.6667 353.5,28.5C 353.5,24.5 353.5,20.5 353.5,16.5 Z"/></g>
<g><path style="opacity:0.979" fill="#fdfdfd" d="M 358.5,38.5 C 370.5,38.5 382.5,38.5 394.5,38.5C 394.5,42.5 394.5,46.5 394.5,50.5C 386.833,50.5 379.167,50.5 371.5,50.5C 371.5,54.8333 371.5,59.1667 371.5,63.5C 378.5,63.5 385.5,63.5 392.5,63.5C 392.5,67.5 392.5,71.5 392.5,75.5C 385.5,75.5 378.5,75.5 371.5,75.5C 371.5,81.8333 371.5,88.1667 371.5,94.5C 367.167,94.5 362.833,94.5 358.5,94.5C 358.5,75.8333 358.5,57.1667 358.5,38.5 Z"/></g>
<g><path style="opacity:0.952" fill="#fdfdfd" d="M 414.5,38.5 C 419.511,38.3341 424.511,38.5007 429.5,39C 433.374,45.9155 437.374,52.7488 441.5,59.5C 445.626,52.7488 449.626,45.9155 453.5,39C 458.533,38.1711 463.533,38.3377 468.5,39.5C 462.2,50.9622 455.7,62.2956 449,73.5C 448.5,80.4921 448.334,87.4921 448.5,94.5C 443.833,94.5 439.167,94.5 434.5,94.5C 434.666,87.4921 434.5,80.4921 434,73.5C 426.969,62.1015 420.469,50.4349 414.5,38.5 Z"/></g>
<g><path style="opacity:0.589" fill="#d75d5a" d="M 229.5,81.5 C 270.833,81.5 312.167,81.5 353.5,81.5C 353.5,86.1667 353.5,90.8333 353.5,95.5C 312.167,95.5 270.833,95.5 229.5,95.5C 229.5,90.8333 229.5,86.1667 229.5,81.5 Z"/></g>
<g><path style="opacity:1" fill="#fe5950" d="M 230.5,82.5 C 271.167,82.5 311.833,82.5 352.5,82.5C 352.5,86.5 352.5,90.5 352.5,94.5C 311.833,94.5 271.167,94.5 230.5,94.5C 230.5,90.5 230.5,86.5 230.5,82.5 Z"/></g>
</svg>
