<?xml version="1.0" encoding="UTF-8"?>
<!DOCTYPE svg PUBLIC "-//W3C//DTD SVG 1.1//EN" "http://www.w3.org/Graphics/SVG/1.1/DTD/svg11.dtd">
<svg xmlns="http://www.w3.org/2000/svg" version="1.1" width="500px" height="101px" style="shape-rendering:geometricPrecision; text-rendering:geometricPrecision; image-rendering:optimizeQuality; fill-rule:evenodd; clip-rule:evenodd" xmlns:xlink="http://www.w3.org/1999/xlink">
<g><path style="opacity:1" fill="#fdfdfd" d="M -0.5,-0.5 C 166.167,-0.5 332.833,-0.5 499.5,-0.5C 499.5,33.1667 499.5,66.8333 499.5,100.5C 332.833,100.5 166.167,100.5 -0.5,100.5C -0.5,66.8333 -0.5,33.1667 -0.5,-0.5 Z"/></g>
<g><path style="opacity:1" fill="#060606" d="M 169.5,9.5 C 191.086,7.11924 203.752,16.4526 207.5,37.5C 204.194,61.6131 190.527,71.1131 166.5,66C 151.827,59.1579 145.66,47.6579 148,31.5C 151.35,20.3177 158.517,12.9844 169.5,9.5 Z"/></g>
<g><path style="opacity:1" fill="#ff5951" d="M 353.5,9.5 C 394.833,9.5 436.167,9.5 477.5,9.5C 477.5,13.8333 477.5,18.1667 477.5,22.5C 436.167,22.5 394.833,22.5 353.5,22.5C 353.5,18.1667 353.5,13.8333 353.5,9.5 Z"/></g>
<g><path style="opacity:1" fill="#080808" d="M 3.5,10.5 C 14.231,10.0973 24.8977,10.5973 35.5,12C 45.5517,16.7355 49.3851,24.5688 47,35.5C 45.21,43.8314 40.0434,48.6647 31.5,50C 26.5111,50.4993 21.5111,50.6659 16.5,50.5C 16.5,55.8333 16.5,61.1667 16.5,66.5C 12.1667,66.5 7.83333,66.5 3.5,66.5C 3.5,47.8333 3.5,29.1667 3.5,10.5 Z"/></g>
<g><path style="opacity:1" fill="#000000" d="M 85.5,10.5 C 85.5,17.8333 85.5,25.1667 85.5,32.5C 93.1667,32.5 100.833,32.5 108.5,32.5C 108.5,25.1667 108.5,17.8333 108.5,10.5C 112.5,10.5 116.5,10.5 120.5,10.5C 120.5,29.1667 120.5,47.8333 120.5,66.5C 116.5,66.5 112.5,66.5 108.5,66.5C 108.5,58.8333 108.5,51.1667 108.5,43.5C 100.833,43.5 93.1667,43.5 85.5,43.5C 85.5,51.1667 85.5,58.8333 85.5,66.5C 81.5,66.5 77.5,66.5 73.5,66.5C 73.5,47.8333 73.5,29.1667 73.5,10.5C 77.5,10.5 81.5,10.5 85.5,10.5 Z"/></g>
<g><path style="opacity:1" fill="#060606" d="M 234.5,10.5 C 238.226,10.1774 241.893,10.5108 245.5,11.5C 253.14,22.3071 260.974,32.9738 269,43.5C 269.5,32.505 269.667,21.505 269.5,10.5C 273.833,10.5 278.167,10.5 282.5,10.5C 282.5,29.1667 282.5,47.8333 282.5,66.5C 278.445,66.8242 274.445,66.4909 270.5,65.5C 262.667,54.5 254.833,43.5 247,32.5C 246.5,43.8284 246.333,55.1618 246.5,66.5C 242.5,66.5 238.5,66.5 234.5,66.5C 234.5,47.8333 234.5,29.1667 234.5,10.5 Z"/></g>
<g><path style="opacity:1" fill="#050505" d="M 312.5,10.5 C 324.5,10.5 336.5,10.5 348.5,10.5C 348.5,14.1667 348.5,17.8333 348.5,21.5C 340.5,21.5 332.5,21.5 324.5,21.5C 324.5,25.1667 324.5,28.8333 324.5,32.5C 331.833,32.5 339.167,32.5 346.5,32.5C 346.5,36.1667 346.5,39.8333 346.5,43.5C 339.167,43.5 331.833,43.5 324.5,43.5C 324.5,47.5 324.5,51.5 324.5,55.5C 332.833,55.5 341.167,55.5 349.5,55.5C 349.5,59.1667 349.5,62.8333 349.5,66.5C 337.167,66.5 324.833,66.5 312.5,66.5C 312.5,47.8333 312.5,29.1667 312.5,10.5 Z"/></g>
<g><path style="opacity:1" fill="#f9f9f9" d="M 172.5,21.5 C 187.825,20.3258 194.991,27.3258 194,42.5C 190.187,52.9956 182.687,57.1623 171.5,55C 162.118,50.3741 158.618,42.8741 161,32.5C 163.437,27.2262 167.271,23.5595 172.5,21.5 Z"/></g>
<g><path style="opacity:1" fill="#fbfbfb" d="M 16.5,21.5 C 22.1052,20.9081 27.4386,21.7415 32.5,24C 34.4559,27.5946 34.9559,31.428 34,35.5C 32.786,37.0488 31.286,38.2155 29.5,39C 25.1794,39.499 20.8461,39.6657 16.5,39.5C 16.5,33.5 16.5,27.5 16.5,21.5 Z"/></g>
<g><path style="opacity:1" fill="#7e7e7e" d="M 85.5,10.5 C 86.4912,17.3134 86.8245,24.3134 86.5,31.5C 93.5,31.5 100.5,31.5 107.5,31.5C 107.175,24.3134 107.509,17.3134 108.5,10.5C 108.5,17.8333 108.5,25.1667 108.5,32.5C 100.833,32.5 93.1667,32.5 85.5,32.5C 85.5,25.1667 85.5,17.8333 85.5,10.5 Z"/></g>
<g><path style="opacity:1" fill="#070707" d="M 393.5,33.5 C 393.5,37.1667 393.5,40.8333 393.5,44.5C 385.981,44.175 378.648,44.5084 371.5,45.5C 371.5,50.1667 371.5,54.8333 371.5,59.5C 378.167,59.5 384.833,59.5 391.5,59.5C 391.5,63.1667 391.5,66.8333 391.5,70.5C 384.833,70.5 378.167,70.5 371.5,70.5C 371.5,76.8333 371.5,83.1667 371.5,89.5C 367.167,89.5 362.833,89.5 358.5,89.5C 358.5,70.8333 358.5,52.1667 358.5,33.5C 370.167,33.5 381.833,33.5 393.5,33.5 Z"/></g>
<g><path style="opacity:1" fill="#040404" d="M 414.5,34.5 C 419.348,33.1863 424.348,33.1863 429.5,34.5C 433.247,41.6628 437.247,48.6628 441.5,55.5C 445.753,48.6628 449.753,41.6628 453.5,34.5C 458.167,33.1667 462.833,33.1667 467.5,34.5C 461,46.1667 454.5,57.8333 448,69.5C 447.5,76.1583 447.334,82.825 447.5,89.5C 443.5,89.5 439.5,89.5 435.5,89.5C 435.666,82.825 435.5,76.1583 435,69.5C 428.645,57.4417 421.811,45.775 414.5,34.5 Z"/></g>
<g><path style="opacity:1" fill="#838383" d="M 108.5,66.5 C 107.508,59.3524 107.175,52.0191 107.5,44.5C 100.5,44.5 93.5,44.5 86.5,44.5C 86.825,52.0191 86.4916,59.3524 85.5,66.5C 85.5,58.8333 85.5,51.1667 85.5,43.5C 93.1667,43.5 100.833,43.5 108.5,43.5C 108.5,51.1667 108.5,58.8333 108.5,66.5 Z"/></g>
<g><path style="opacity:1" fill="#888888" d="M 393.5,33.5 C 394.483,37.2984 394.817,41.2984 394.5,45.5C 386.833,45.5 379.167,45.5 371.5,45.5C 378.648,44.5084 385.981,44.175 393.5,44.5C 393.5,40.8333 393.5,37.1667 393.5,33.5 Z"/></g>
<g><path style="opacity:1" fill="#fe5950" d="M 230.5,76.5 C 271.5,76.5 312.5,76.5 353.5,76.5C 353.5,80.8333 353.5,85.1667 353.5,89.5C 312.5,89.5 271.5,89.5 230.5,89.5C 230.5,85.1667 230.5,80.8333 230.5,76.5 Z"/></g>
<g><path style="opacity:1" fill="#ffa29d" d="M 230.5,76.5 C 230.5,80.8333 230.5,85.1667 230.5,89.5C 271.5,89.5 312.5,89.5 353.5,89.5C 312.337,90.4986 271.003,90.832 229.5,90.5C 229.181,85.6367 229.514,80.97 230.5,76.5 Z"/></g>
</svg>
